<svg width="24" height="24" viewBox="0 0 24 24" fill="none" xmlns="http://www.w3.org/2000/svg">
<rect width="24" height="24" rx="12" fill="black" fill-opacity="0.4"/>
<path d="M11.999 12.7025L8.61703 16.0847C8.5247 16.1769 8.40864 16.2241 8.26886 16.2263C8.1292 16.2285 8.01103 16.1812 7.91436 16.0847C7.81781 15.988 7.76953 15.8709 7.76953 15.7333C7.76953 15.5958 7.81781 15.4787 7.91436 15.382L11.2965 12L7.91436 8.61801C7.82214 8.52568 7.77492 8.40962 7.7727 8.26984C7.77059 8.13017 7.81781 8.01201 7.91436 7.91534C8.01103 7.81879 8.12814 7.77051 8.2657 7.77051C8.40325 7.77051 8.52036 7.81879 8.61703 7.91534L11.999 11.2975L15.381 7.91534C15.4734 7.82312 15.5894 7.7759 15.7292 7.77367C15.8689 7.77156 15.987 7.81879 16.0837 7.91534C16.1803 8.01201 16.2285 8.12912 16.2285 8.26667C16.2285 8.40423 16.1803 8.52134 16.0837 8.61801L12.7015 12L16.0837 15.382C16.1759 15.4743 16.2231 15.5904 16.2254 15.7302C16.2275 15.8698 16.1803 15.988 16.0837 16.0847C15.987 16.1812 15.8699 16.2295 15.7324 16.2295C15.5948 16.2295 15.4777 16.1812 15.381 16.0847L11.999 12.7025Z" fill="white"/>
</svg>
