<svg width="36" height="36" viewBox="0 0 36 36" fill="none" xmlns="http://www.w3.org/2000/svg">
<path d="M22.8404 11.3398H23.6556C24.5587 11.3398 25.0103 10.9468 25.0103 10.1608C25.0103 9.37476 24.5587 8.98176 23.6556 8.98176H22.8404V11.3398ZM22.8404 15.2281C22.8404 15.9069 22.29 16.4572 21.6112 16.4572C20.9323 16.4572 20.382 15.9069 20.382 15.2281V8.56784C20.382 7.70195 21.0839 7 21.9498 7H24.2953C25.3573 7 26.1684 7.27594 26.7286 7.82782C27.2972 8.3797 27.5815 9.15735 27.5815 10.1608C27.5815 11.1642 27.2972 11.9418 26.7286 12.4937C26.1684 13.0456 25.3573 13.3216 24.2953 13.3216H22.8404V15.2281Z" fill="black"/>
<path d="M30.6796 23.8826H31.4949C32.3979 23.8826 32.8495 23.4895 32.8495 22.7035C32.8495 21.9175 32.3979 21.5245 31.4949 21.5245H30.6796V23.8826ZM30.6796 27.7708C30.6796 28.4497 30.1293 29 29.4504 29C28.7715 29 28.2212 28.4497 28.2212 27.7708V21.1106C28.2212 20.2447 28.9232 19.5428 29.789 19.5428H32.1345C33.1965 19.5428 34.0076 19.8187 34.5678 20.3706C35.1364 20.9225 35.4207 21.7001 35.4207 22.7035C35.4207 23.707 35.1364 24.4846 34.5678 25.0365C34.0076 25.5884 33.1965 25.8643 32.1345 25.8643H30.6796V27.7708Z" fill="black"/>
<path d="M10.0485 11.2269H10.5126C10.9976 11.2269 11.3697 11.1266 11.6289 10.9259C11.8882 10.7252 12.0178 10.4367 12.0178 10.0604C12.0178 9.68415 11.8882 9.39567 11.6289 9.19498C11.3697 8.9943 10.9976 8.89396 10.5126 8.89396C10.2563 8.89396 10.0485 9.10173 10.0485 9.35804V11.2269ZM15.4545 16.4572H12.394L10.0485 12.8198V16.4572H7.59016V8.04523C7.59016 7.46796 8.05813 7 8.6354 7H11.4157C11.9425 7 12.4024 7.07944 12.7954 7.23831C13.1884 7.38883 13.5103 7.59787 13.7612 7.86545C14.0204 8.13303 14.2127 8.44242 14.3382 8.79361C14.472 9.14481 14.5389 9.52109 14.5389 9.92246C14.5389 10.6416 14.3633 11.2269 14.0121 11.6784C13.6692 12.1216 13.1591 12.4227 12.4818 12.5815L15.4545 16.4572Z" fill="black"/>
<path d="M17.8878 23.7697H18.3519C18.8368 23.7697 19.2089 23.6693 19.4682 23.4686C19.7274 23.268 19.857 22.9795 19.857 22.6032C19.857 22.2269 19.7274 21.9384 19.4682 21.7377C19.2089 21.5371 18.8368 21.4367 18.3519 21.4367C18.0955 21.4367 17.8878 21.6445 17.8878 21.9008V23.7697ZM23.2937 29H20.2333L17.8878 25.3626V29H15.4294V20.588C15.4294 20.0107 15.8974 19.5428 16.4746 19.5428H19.2549C19.7817 19.5428 20.2416 19.6222 20.6346 19.7811C21.0276 19.9316 21.3496 20.1406 21.6004 20.4082C21.8596 20.6758 22.052 20.9852 22.1774 21.3364C22.3112 21.6876 22.3781 22.0639 22.3781 22.4652C22.3781 23.1843 22.2025 23.7697 21.8513 24.2212C21.5084 24.6644 20.9984 24.9654 20.3211 25.1243L23.2937 29Z" fill="black"/>
<path d="M4.47776 9.23679V15.2281C4.47776 15.9069 3.92744 16.4572 3.24857 16.4572C2.56971 16.4572 2.01938 15.9069 2.01938 15.2281V9.23679H1.1184C0.500723 9.23679 0 8.73607 0 8.1184C0 7.50072 0.500723 7 1.1184 7H5.37875C5.99643 7 6.49715 7.50072 6.49715 8.1184C6.49715 8.73607 5.99643 9.23679 5.37875 9.23679H4.47776Z" fill="black"/>
<path d="M18.0302 10.1357C18.7518 10.1357 19.3368 10.7206 19.3368 11.4422V15.1005C19.3368 15.8221 18.7518 16.4071 18.0302 16.4071C17.3086 16.4071 16.7237 15.8221 16.7237 15.1005V11.4422C16.7237 10.7206 17.3086 10.1357 18.0302 10.1357Z" fill="#F66A6A"/>
<path d="M19.3368 8.30654C19.3368 9.02812 18.7518 9.61307 18.0302 9.61307C17.3086 9.61307 16.7237 9.02812 16.7237 8.30654C16.7237 7.58496 17.3086 7 18.0302 7C18.7518 7 19.3368 7.58496 19.3368 8.30654Z" fill="#F66A6A"/>
<path d="M12.317 21.7796V27.7708C12.317 28.4497 11.7667 29 11.0878 29C10.4089 29 9.85861 28.4497 9.85861 27.7708V21.7796H8.95762C8.33995 21.7796 7.83922 21.2788 7.83922 20.6612C7.83922 20.0435 8.33995 19.5428 8.95762 19.5428H13.218C13.8356 19.5428 14.3364 20.0435 14.3364 20.6612C14.3364 21.2788 13.8356 21.7796 13.218 21.7796H12.317Z" fill="black"/>
<path d="M25.8694 22.6784C26.591 22.6784 27.176 23.2634 27.176 23.985V27.6433C27.176 28.3649 26.591 28.9498 25.8694 28.9498C25.1479 28.9498 24.5629 28.3649 24.5629 27.6433V23.985C24.5629 23.2634 25.1479 22.6784 25.8694 22.6784Z" fill="#F66A6A"/>
<path d="M27.176 20.8493C27.176 21.5709 26.591 22.1558 25.8694 22.1558C25.1479 22.1558 24.5629 21.5709 24.5629 20.8493C24.5629 20.1277 25.1479 19.5428 25.8694 19.5428C26.591 19.5428 27.176 20.1277 27.176 20.8493Z" fill="#F66A6A"/>
</svg>
