<svg width="78" height="48" viewBox="0 0 78 48" fill="none" xmlns="http://www.w3.org/2000/svg">
<path d="M49.8335 9.46864H51.6123C53.5827 9.46864 54.5678 8.61117 54.5678 6.89624C54.5678 5.1813 53.5827 4.32383 51.6123 4.32383H49.8335V9.46864ZM49.8335 17.9521C49.8335 19.4333 48.6328 20.634 47.1516 20.634C45.6705 20.634 44.4698 19.4333 44.4698 17.9521V3.42075C44.4698 1.53152 46.0013 0 47.8905 0H53.008C55.325 0 57.0946 0.602052 58.317 1.80616C59.5576 3.01026 60.1779 4.70695 60.1779 6.89624C60.1779 9.08552 59.5576 10.7822 58.317 11.9863C57.0946 13.1904 55.325 13.7925 53.008 13.7925H49.8335V17.9521Z" fill="black"/>
<path d="M66.9373 36.8347H68.7161C70.6864 36.8347 71.6716 35.9772 71.6716 34.2623C71.6716 32.5473 70.6864 31.6898 68.7161 31.6898H66.9373V36.8347ZM66.9373 45.3181C66.9373 46.7993 65.7366 48 64.2554 48C62.7743 48 61.5735 46.7993 61.5735 45.3181V30.7868C61.5735 28.8975 63.1051 27.366 64.9943 27.366H70.1117C72.4287 27.366 74.1984 27.9681 75.4207 29.1722C76.6613 30.3763 77.2816 32.073 77.2816 34.2623C77.2816 36.4515 76.6613 38.1482 75.4207 39.3523C74.1984 40.5564 72.4287 41.1585 70.1117 41.1585H66.9373V45.3181Z" fill="black"/>
<path d="M21.9241 9.22235H22.9366C23.9948 9.22235 24.8067 9.00342 25.3722 8.56556C25.9378 8.12771 26.2206 7.49829 26.2206 6.67731C26.2206 5.85633 25.9378 5.22691 25.3722 4.78905C24.8067 4.3512 23.9948 4.13227 22.9366 4.13227C22.3774 4.13227 21.9241 4.5856 21.9241 5.14481V9.22235ZM33.7189 20.634H27.0415L21.9241 12.6978V20.634H16.5604V2.2805C16.5604 1.02101 17.5814 0 18.8409 0H24.907C26.0564 0 27.0598 0.173318 27.9173 0.519954C28.7747 0.848347 29.4771 1.30445 30.0244 1.88825C30.59 2.47206 31.0096 3.14709 31.2833 3.91334C31.5752 4.67959 31.7211 5.50057 31.7211 6.37628C31.7211 7.94527 31.338 9.22235 30.5718 10.2075C29.8238 11.1745 28.7109 11.8312 27.2331 12.1779L33.7189 20.634Z" fill="black"/>
<path d="M39.0279 36.5884H40.0404C41.0986 36.5884 41.9104 36.3694 42.476 35.9316C43.0415 35.4937 43.3243 34.8643 43.3243 34.0433C43.3243 33.2223 43.0415 32.5929 42.476 32.1551C41.9104 31.7172 41.0986 31.4983 40.0404 31.4983C39.4812 31.4983 39.0279 31.9516 39.0279 32.5108V36.5884ZM50.8226 48H44.1453L39.0279 40.0639V48H33.6641V29.6465C33.6641 28.387 34.6851 27.366 35.9446 27.366H42.0108C43.1601 27.366 44.1636 27.5393 45.021 27.886C45.8785 28.2144 46.5809 28.6705 47.1282 29.2543C47.6938 29.8381 48.1134 30.5131 48.387 31.2794C48.6789 32.0456 48.8249 32.8666 48.8249 33.7423C48.8249 35.3113 48.4418 36.5884 47.6755 37.5735C46.9275 38.5405 45.8146 39.1973 44.3369 39.5439L50.8226 48Z" fill="black"/>
<path d="M9.76967 4.88027V17.9521C9.76967 19.4333 8.56895 20.634 7.0878 20.634C5.60664 20.634 4.40593 19.4333 4.40593 17.9521V4.88027H2.44014C1.09249 4.88027 0 3.78779 0 2.44014C0 1.09249 1.09249 0 2.44014 0H11.7355C13.0831 0 14.1756 1.09249 14.1756 2.44014C14.1756 3.78779 13.0831 4.88027 11.7355 4.88027H9.76967Z" fill="black"/>
<path d="M39.3387 6.84151C40.913 6.84151 42.1893 8.11777 42.1893 9.69213V17.6739C42.1893 19.2482 40.913 20.5245 39.3387 20.5245C37.7643 20.5245 36.488 19.2482 36.488 17.6739V9.69213C36.488 8.11777 37.7643 6.84151 39.3387 6.84151Z" fill="#F66A6A"/>
<path d="M42.1893 2.85063C42.1893 4.42498 40.913 5.70125 39.3387 5.70125C37.7643 5.70125 36.488 4.42498 36.488 2.85063C36.488 1.27627 37.7643 0 39.3387 0C40.913 0 42.1893 1.27627 42.1893 2.85063Z" fill="#F66A6A"/>
<path d="M26.8734 32.2463V45.3181C26.8734 46.7993 25.6727 48 24.1916 48C22.7104 48 21.5097 46.7993 21.5097 45.3181V32.2463H19.5439C18.1963 32.2463 17.1038 31.1538 17.1038 29.8062C17.1038 28.4585 18.1962 27.366 19.5439 27.366H28.8392C30.1869 27.366 31.2794 28.4585 31.2794 29.8062C31.2794 31.1538 30.1869 32.2463 28.8392 32.2463H26.8734Z" fill="black"/>
<path d="M56.4424 34.2075C58.0168 34.2075 59.293 35.4838 59.293 37.0582V45.0399C59.293 46.6143 58.0168 47.8905 56.4424 47.8905C54.8681 47.8905 53.5918 46.6143 53.5918 45.0399V37.0582C53.5918 35.4838 54.8681 34.2075 56.4424 34.2075Z" fill="#F66A6A"/>
<path d="M59.293 30.2166C59.293 31.791 58.0168 33.0673 56.4424 33.0673C54.8681 33.0673 53.5918 31.791 53.5918 30.2166C53.5918 28.6423 54.8681 27.366 56.4424 27.366C58.0168 27.366 59.293 28.6423 59.293 30.2166Z" fill="#F66A6A"/>
</svg>
