<svg width="24" height="24" viewBox="0 0 24 24" fill="none" xmlns="http://www.w3.org/2000/svg">
<path d="M11.9905 19.7099C11.7763 19.7099 11.5612 19.6715 11.3453 19.5946C11.1293 19.5176 10.9392 19.3971 10.775 19.2331L9.3385 17.9274C7.5655 16.3107 5.9825 14.7226 4.5895 13.1629C3.1965 11.6032 2.5 9.93239 2.5 8.15039C2.5 6.73122 2.9785 5.54306 3.9355 4.58589C4.89267 3.62889 6.08083 3.15039 7.5 3.15039C8.30633 3.15039 9.10283 3.33631 9.8895 3.70814C10.676 4.07997 11.3795 4.68381 12 5.51964C12.6205 4.68381 13.324 4.07997 14.1105 3.70814C14.8972 3.33631 15.6937 3.15039 16.5 3.15039C17.9192 3.15039 19.1073 3.62889 20.0645 4.58589C21.0215 5.54306 21.5 6.73122 21.5 8.15039C21.5 9.95172 20.7917 11.6411 19.375 13.2186C17.9583 14.7961 16.3788 16.3708 14.6365 17.9426L13.2153 19.2331C13.0512 19.3971 12.8597 19.5176 12.6405 19.5946C12.4212 19.6715 12.2045 19.7099 11.9905 19.7099ZM11.2808 7.03889C10.7398 6.21456 10.1702 5.61039 9.572 5.22639C8.974 4.84239 8.28333 4.65039 7.5 4.65039C6.5 4.65039 5.66667 4.98372 5 5.65039C4.33333 6.31706 4 7.15039 4 8.15039C4 8.95289 4.25867 9.79197 4.776 10.6676C5.29333 11.5433 5.94267 12.4138 6.724 13.2791C7.50533 14.1446 8.35183 14.9901 9.2635 15.8156C10.175 16.6413 11.0198 17.4086 11.798 18.1176C11.8557 18.169 11.923 18.1946 12 18.1946C12.077 18.1946 12.1443 18.169 12.202 18.1176C12.9802 17.4086 13.825 16.6413 14.7365 15.8156C15.6482 14.9901 16.4947 14.1446 17.276 13.2791C18.0573 12.4138 18.7067 11.5433 19.224 10.6676C19.7413 9.79197 20 8.95289 20 8.15039C20 7.15039 19.6667 6.31706 19 5.65039C18.3333 4.98372 17.5 4.65039 16.5 4.65039C15.7167 4.65039 15.026 4.84239 14.428 5.22639C13.8298 5.61039 13.2603 6.21456 12.7192 7.03889C12.6346 7.16706 12.5282 7.26322 12.4 7.32739C12.2718 7.39139 12.1385 7.42339 12 7.42339C11.8615 7.42339 11.7282 7.39139 11.6 7.32739C11.4718 7.26322 11.3654 7.16706 11.2808 7.03889Z" fill="#F66A6A"/>
</svg>
