<svg width="16" height="16" viewBox="0 0 16 16" fill="none" xmlns="http://www.w3.org/2000/svg">
<path d="M6.77907 12.4752C6.69097 12.4372 6.62074 12.3769 6.56837 12.2943C6.51611 12.2118 6.49542 12.1161 6.5063 12.0073L6.82125 8.86023L6.1579 8.79385C5.82711 8.76074 5.5563 8.61533 5.34547 8.35761C5.13454 8.09977 5.04563 7.80545 5.07873 7.47466L5.56896 2.57613C5.60206 2.24534 5.74753 1.97448 6.00537 1.76355C6.26309 1.55272 6.55735 1.46386 6.88814 1.49696L10.0989 1.81828C10.4273 1.85115 10.6815 2.00221 10.8614 2.27147C11.0415 2.54074 11.0744 2.82213 10.96 3.11565L9.78042 6.07054L10.6861 6.16117C11.0458 6.19717 11.2959 6.38261 11.4364 6.71748C11.5769 7.05236 11.5286 7.36042 11.2916 7.64166L7.30354 12.3461C7.2323 12.4309 7.14913 12.4831 7.05403 12.5027C6.95882 12.5224 6.86717 12.5132 6.77907 12.4752Z" fill="#333333"/>
</svg>
