<svg width="16" height="16" viewBox="0 0 16 16" fill="none" xmlns="http://www.w3.org/2000/svg">
<path d="M3.53854 13.6663C3.20176 13.6663 2.91671 13.5497 2.68337 13.3163C2.45004 13.083 2.33337 12.798 2.33337 12.4612V3.53817C2.33337 3.2014 2.45004 2.91634 2.68337 2.68301C2.91671 2.44967 3.20176 2.33301 3.53854 2.33301H7.50654C7.64832 2.33301 7.7671 2.3809 7.86287 2.47667C7.95854 2.57234 8.00637 2.69112 8.00637 2.83301C8.00637 2.9749 7.95854 3.09367 7.86287 3.18934C7.7671 3.28512 7.64832 3.33301 7.50654 3.33301H3.53854C3.48721 3.33301 3.44021 3.3544 3.39754 3.39717C3.35476 3.43984 3.33337 3.48684 3.33337 3.53817V12.4612C3.33337 12.5125 3.35476 12.5595 3.39754 12.6022C3.44021 12.645 3.48721 12.6663 3.53854 12.6663H7.50654C7.64832 12.6663 7.7671 12.7142 7.86287 12.81C7.95854 12.9057 8.00637 13.0245 8.00637 13.1663C8.00637 13.3082 7.95854 13.427 7.86287 13.5227C7.7671 13.6185 7.64832 13.6663 7.50654 13.6663H3.53854ZM11.7449 8.49967H6.56421C6.42232 8.49967 6.30349 8.45179 6.20771 8.35601C6.11204 8.26034 6.06421 8.14156 6.06421 7.99967C6.06421 7.85779 6.11204 7.73901 6.20771 7.64334C6.30349 7.54756 6.42232 7.49967 6.56421 7.49967H11.7449L10.4629 6.21767C10.3705 6.12534 10.3233 6.01273 10.3212 5.87984C10.3191 5.74695 10.3663 5.62878 10.4629 5.52534C10.5594 5.4219 10.6765 5.36845 10.8142 5.36501C10.9518 5.36167 11.0723 5.41167 11.1757 5.51501L13.2385 7.57784C13.359 7.6984 13.4192 7.83901 13.4192 7.99967C13.4192 8.16034 13.359 8.30095 13.2385 8.42151L11.1757 10.4843C11.0766 10.5835 10.9589 10.6323 10.8225 10.631C10.6862 10.6298 10.5663 10.5775 10.4629 10.474C10.3663 10.3706 10.3198 10.2518 10.3232 10.1177C10.3265 9.98345 10.3765 9.86806 10.4732 9.77151L11.7449 8.49967Z" fill="#333333"/>
</svg>
