<svg width="24" height="24" viewBox="0 0 24 24" fill="none" xmlns="http://www.w3.org/2000/svg">
<path d="M8.68075 13.7499C8.54525 13.7499 8.43609 13.7043 8.35325 13.6129C8.27042 13.5218 8.229 13.4154 8.229 13.2937C8.229 13.2632 8.27575 13.1576 8.36925 12.9769L11.5203 9.82594C11.5926 9.75344 11.6674 9.70052 11.7448 9.66719C11.8221 9.63385 11.9072 9.61719 12 9.61719C12.0928 9.61719 12.1779 9.63385 12.2553 9.66719C12.3326 9.70052 12.4074 9.75344 12.4798 9.82594L15.631 12.9769C15.6743 13.0204 15.7085 13.069 15.7335 13.1227C15.7585 13.1762 15.771 13.2336 15.771 13.2949C15.771 13.4174 15.7296 13.5239 15.6468 13.6144C15.5639 13.7048 15.4548 13.7499 15.3193 13.7499H8.68075Z" fill="black"/>
</svg>
